# xmcd
#
# Track frame offsets:
#	150
#	21673
#	41547
#	60082
#	83548
#	104334
#	130882
#	153118
#	175499
#	197047
#
# Disc length: 2888
#
# Revision: 2
# Processed by: cddbd v1.5.1PL0 Copyright (c) Steve Scherf et al.
# Submitted via: CDex 1.40Beta4
# Normalized: r1:TRMNUM
#
DISCID=780b460a
DTITLE=Billy Price - Can I Change My Mind
DYEAR=1999
DGENRE=Blues
TTITLE0=Crack Crack 
TTITLE1=Mine All Mine All Mine
TTITLE2=I Know It's Your Party
TTITLE3=This Magic Hour
TTITLE4=Indefinitely
TTITLE5=What Is Love
TTITLE6=No Matter How You Turn or Twist It
TTITLE7=Can I Change My Mind?
TTITLE8=One In A Million
TTITLE9=Pass The Sugar
EXTD=YEAR: 1999 ID3G:   0
EXTT0=
EXTT1=
EXTT2=
EXTT3=
EXTT4=
EXTT5=
EXTT6=
EXTT7=
EXTT8=
EXTT9=
PLAYORDER=
